<svg xmlns="http://www.w3.org/2000/svg" width="16.211" height="12.564" viewBox="0 0 16.211 12.564">
  <g id="language" transform="translate(-6.751 -16.488)">
    <path id="Path_4837" data-name="Path 4837" d="M20.93,16.488H15.494a2.036,2.036,0,0,0-2.038,2.034v1.125H8.786a2.037,2.037,0,0,0-2.036,2.038v3.089a2.038,2.038,0,0,0,1.754,2.015v1.983a.281.281,0,0,0,.431.237l3.485-2.2h1.815a2.034,2.034,0,0,0,2.025-2.034V23.649H17.3l3.472,2.2a.291.291,0,0,0,.15.043.3.3,0,0,0,.137-.034.284.284,0,0,0,.144-.247V23.627a2.038,2.038,0,0,0,1.754-2.015V18.522a2.038,2.038,0,0,0-2.032-2.034ZM15.7,24.774a1.473,1.473,0,0,1-1.472,1.471H12.331a.271.271,0,0,0-.152.045L9.07,28.26V26.519a.281.281,0,0,0-.281-.281,1.475,1.475,0,0,1-1.473-1.472V21.685a1.475,1.475,0,0,1,1.473-1.472h5.436A1.473,1.473,0,0,1,15.7,21.685ZM22.4,21.611a1.476,1.476,0,0,1-1.473,1.472.281.281,0,0,0-.281.281V25.1l-3.112-1.971a.265.265,0,0,0-.152-.045H16.261v-1.4a2.036,2.036,0,0,0-2.034-2.034h-.208V18.526a1.473,1.473,0,0,1,1.472-1.471h5.436A1.475,1.475,0,0,1,22.4,18.526Z" transform="translate(0)" fill="#7b7b7b"/>
    <path id="Path_4838" data-name="Path 4838" d="M23.605,41.818a.281.281,0,0,0-.5,0l-1.734,3.416a.278.278,0,0,0-.026.22.281.281,0,0,0,.526.035l.6-1.177h1.774l.59,1.177a.281.281,0,1,0,.5-.255Zm-.853,1.931.6-1.183.6,1.183Z" transform="translate(-11.848 -20.457)" fill="#7b7b7b"/>
    <path id="Path_4839" data-name="Path 4839" d="M61.9,28.3l-1.1-.738a6.065,6.065,0,0,0,.562-1.14h.375a.281.281,0,0,0,0-.562H60.606V25.27a.281.281,0,1,0-.562,0v.585H58.781a.281.281,0,0,0,0,.562h1.989a5.434,5.434,0,0,1-.431.823l-.707-.476a.285.285,0,0,0-.315.476l.7.469a5.76,5.76,0,0,1-.725.763.282.282,0,1,0,.375.422,6.421,6.421,0,0,0,.823-.87l1.106.75a.274.274,0,0,0,.155.047.281.281,0,0,0,.158-.513Z" transform="translate(-42.048 -6.907)" fill="#7b7b7b"/>
  </g>
</svg>
