<svg xmlns="http://www.w3.org/2000/svg" width="12.3" height="14.212" viewBox="0 0 12.3 14.212">
  <g id="dr-location" transform="translate(0.25 0.25)">
    <path id="Path_4835" data-name="Path 4835" d="M28.9-81a5.9,5.9,0,0,0-4.172,1.728A5.9,5.9,0,0,0,23-75.1c0,4.032,5.326,7.408,5.553,7.548l.347.219.347-.219c.227-.14,5.553-3.516,5.553-7.548a5.9,5.9,0,0,0-1.728-4.173A5.9,5.9,0,0,0,28.9-81Zm0,12.1c-1.125-.783-4.589-3.422-4.589-6.2a4.59,4.59,0,0,1,2.295-3.975,4.59,4.59,0,0,1,4.589,0A4.59,4.59,0,0,1,33.489-75.1C33.489-72.318,30.025-69.678,28.9-68.9Z" transform="translate(-23 81)" fill="#7b7b7b" stroke="#fff" stroke-width="0.5"/>
    <path id="Path_4836" data-name="Path 4836" d="M41.4-65a2.4,2.4,0,0,0-2.221,1.484A2.4,2.4,0,0,0,39.7-60.9a2.4,2.4,0,0,0,2.62.522A2.4,2.4,0,0,0,43.806-62.6,2.4,2.4,0,0,0,41.4-65Zm0,3.5a1.094,1.094,0,0,1-1.01-.674,1.093,1.093,0,0,1,.237-1.191,1.093,1.093,0,0,1,1.191-.237,1.094,1.094,0,0,1,.674,1.01,1.093,1.093,0,0,1-.32.773,1.093,1.093,0,0,1-.773.32Z" transform="translate(-35.502 68.497)" fill="#7b7b7b" stroke="#fff" stroke-width="0.5"/>
  </g>
</svg>
